# xmcd
#
# Track frame offsets: 
#        150
#        15374
#        31903
#        43612
#        56986
#        72865
#        86713
#        98474
#        111193
#        129877
#        142373
#        159312
#        173114
#        189555
#        205902
#        218855
#        230269
#        244398
#        256184
#        267258
#        282901
#        295749
#        312462
#
# Disc length: 4456 seconds
#
# Revision: 0
# Processed by: cddbd v1.5.2PL0 Copyright (c) Steve Scherf et al.
# Submitted via: ExactAudioCopy v0.99pb3
#
DISCID=4e116617
DTITLE=Lazy Lester - Rides Again
DYEAR=2011
DGENRE=Blues
TTITLE0=Sugar Coated Love (Take 1)
TTITLE1=Travelling Days (Take 3)
TTITLE2=The Same Thing Could Happen To You (Take 2)
TTITLE3=Can't Stand To See You Go (Take 1)
TTITLE4=Out On The Road (Take 1)
TTITLE5=Lester's Shuffle (Take 2)
TTITLE6=I Hear You Knockin' (Take 4)
TTITLE7=Irene (Take 3)
TTITLE8=St. Louis Blues (Take 1)
TTITLE9=Blowin' A Rhumba (Take 2)
TTITLE10=Nothing But The Devil (Take 1)
TTITLE11=Hey Mattie (Take 4)
TTITLE12=Travelling Days (Take 1)
TTITLE13=Travelling Days (Take 2)
TTITLE14=The Same Thing Could Happen To You (Take 1)
TTITLE15=The Same Thing Could Happen To You (Remake Take 4)
TTITLE16=Lester's Shuffle (Take 1)
TTITLE17=I Hear You Knockin' (Take 1)
TTITLE18=Blowin' A Rhumba (Take 3)
TTITLE19=Hey Mattie (Take 1)
TTITLE20=Hey Mattie (Take 3)
TTITLE21=I Ain't Glad (Take 2)
TTITLE22=Rockin' With Lester (Take 1)
EXTD=
EXTT0=
EXTT1=
EXTT2=
EXTT3=
EXTT4=
EXTT5=
EXTT6=
EXTT7=
EXTT8=
EXTT9=
EXTT10=
EXTT11=
EXTT12=
EXTT13=
EXTT14=
EXTT15=
EXTT16=
EXTT17=
EXTT18=
EXTT19=
EXTT20=
EXTT21=
EXTT22=
PLAYORDER=
